<svg xmlns="http://www.w3.org/2000/svg" width="800" height="800" viewBox="0 0 800 800"><rect width="800" height="800" fill="rgba(0,0,0,0)"/><g transform="translate(30.971 229.727)"><g transform="translate(456.402 263.254)"><path d="M5091.312,1997.6s42.472-2.947,42.284,21.769-41.138,27.156-28.765,49.686,73.238-19.708,73.238-19.708" transform="translate(-5091.312 -1997.489)" fill="none" stroke="#adadad" stroke-width="3"/><g transform="translate(99.595 32.124) rotate(50)" fill="#585858"><path d="M 11.36108207702637 23.35606002807617 L 1.954663753509521 23.35606002807617 L 6.65786600112915 5.797403812408447 L 11.36108207702637 23.35606002807617 Z" stroke="none"/><path d="M 6.657867908477783 11.59481811523438 L 3.909326553344727 21.85606002807617 L 9.406417846679688 21.85606002807617 L 6.657867908477783 11.59481811523438 M 6.657863616943359 0 L 13.3157434463501 24.85606002807617 L 3.814697265625e-06 24.85606002807617 L 6.657863616943359 0 Z" stroke="none" fill="#adadad"/></g></g><g transform="translate(234.69 60.607)"><path d="M4715.469,1682.808s27.745,10.137,55.493,10.137,55.493-10.137,55.493-10.137v-8.885H4715.469" transform="translate(-4636.428 -1449.372)" fill="#fff" stroke="#707070" stroke-width="1"/><line x1="0.726" y1="9.765" transform="translate(79.139 224.335)" fill="none" stroke="#707070" stroke-width="1"/><path d="M0,9.765,1.07,0" transform="translate(189.055 224.335)" fill="none" stroke="#707070" stroke-width="1"/><path d="M4715.283,1682.79s-8.989,76.894,17.593,133.015c22.243,46.768,71.18,70.151,115.564,70.151,44.625.5,93.48-23.383,115.244-70.151,27.061-56.12,17.915-133.015,17.915-133.015" transform="translate(-4713.819 -1649.315)" fill="#fff" stroke="#707070" stroke-width="2"/><path d="M4715.468,1682.79s26.633,33.081,133.157,33.081,133.158-33.081,133.158-33.081" transform="translate(-4714.165 -1649.944)" fill="#fff" stroke="#707070" stroke-width="3"/><path d="M4715.468,1715.87s26.633-33.081,133.157-33.081,133.158,33.081,133.158,33.081" transform="translate(-4714.165 -1682.79)" fill="#fff" stroke="#707070" stroke-width="2"/><path d="M4715.468,1710.356s22.194-27.566,110.963-27.566,110.962,27.566,110.962,27.566" transform="translate(-4691.972 -1663.26)" fill="#fff" stroke="#707070" stroke-width="1"/><path d="M4729.368,1738.626c12.309,23.318,8.5,57.847,8.5,57.847" transform="translate(-4526.228 -1678.406)" fill="#fff" stroke="#707070" stroke-width="3"/><path d="M3.091,1.24A140.181,140.181,0,0,1,20.285,0a129.763,129.763,0,0,1,16.8,1.24,223.941,223.941,0,0,1,1.8,25.71A172.407,172.407,0,0,1,37.08,50.7a151.09,151.09,0,0,1-18.952,1.418A130.486,130.486,0,0,1,0,50.7,246.907,246.907,0,0,0,3.091,25.627,219.63,219.63,0,0,0,3.091,1.24Z" transform="translate(193.366 116.816) rotate(3)" fill="#fff" stroke="#707070" stroke-width="2"/><path d="M4869.624,1818.057s23.393-27.4,110.37-27.327,110.767,27.327,110.767,27.327-39.874,18.459-110.767,18.459S4869.624,1818.057,4869.624,1818.057Z" transform="translate(-4845.766 -1771.253)" fill="#5c5c5c"/><path d="M155.645,280.274a168.088,168.088,0,0,0-30.162,9.511c-15.868,6.743-24.268,15.008-24.268,15.008a53.142,53.142,0,0,0,8.92,7.411,85.221,85.221,0,0,0,11.828,6.22,70.741,70.741,0,0,1,14.861-10.172,122.338,122.338,0,0,1,18.821-7.577,33.984,33.984,0,0,1-1.285-9.184A65.046,65.046,0,0,1,155.645,280.274Z" transform="translate(-98.833 -270.967)" fill="rgba(0,0,0,0.13)"/><path d="M5114.959,1820.388s5.3,57.845-6.615,101.046-51.674,73.69-51.674,73.69,48.114-16.658,65.861-73.69,10.226-112.47,10.226-112.47Z" transform="translate(-4865.65 -1772.413)" fill="rgba(0,0,0,0.13)"/></g><g transform="translate(273.317)"><path d="M4810.557,1623.807s-17.474,29.711-14.075,42.689,19.055,18.735,19.055,18.735,10.634-1.775,20.979-4.218a163.023,163.023,0,0,1,20.043-3.327s-24.67-3.1-36.365-16.083S4810.557,1623.807,4810.557,1623.807Z" transform="translate(-4796.043 -1623.807)" fill="#646464" stroke="#adadad" stroke-width="3"/><path d="M4842.047,1623.807s17.472,29.711,14.072,42.689-21.943,18.735-21.943,18.735a113.518,113.518,0,0,0-18.089-4.218c-10.345-1.555-20.043-3.327-20.043-3.327s24.67-3.1,36.365-16.083S4842.047,1623.807,4842.047,1623.807Z" transform="translate(-4663.774 -1623.807)" fill="#646464" stroke="#adadad" stroke-width="3"/></g><g transform="translate(467.241 59.957)"><path d="M71.5,141.8s34.169-33.92,61.634-43.093,61.142,0,61.142,0,19.066-12.416,30.109-32.7c4.185-7.687,5.79-17.733,10.749-29.038C243.046,18.931,253.727,0,253.727,0S208.4,41.5,188.419,43.654s-29.9-17.449-29.9-17.449-16.527,23-37.14,25.471S76.074,36.09,76.074,36.09,90.6,60.675,71.788,66.58,0,71.406,0,71.406s47.748,8.38,68.639,27.3S71.5,141.8,71.5,141.8Z" transform="translate(270.993 140.423) rotate(172)" fill="#656565" stroke="#adadad" stroke-width="3"/><path d="M4744.057,1847.137c8.755,1.935,11.476,4.314,26.221,6.368s32.466-2.528,32.466-2.528" transform="translate(-4679.76 -1777.102)" fill="none" stroke="#adadad" stroke-width="3"/><path d="M39.972,6.626C31.266,4.7,31.233,2.366,21.395.536S0,2.155,0,2.155" transform="matrix(-0.899, -0.438, 0.438, -0.899, 98.274, 93.789)" fill="none" stroke="#adadad" stroke-width="3"/><path d="M39.972,6.626C31.266,4.7,31.233,2.366,21.395.536S0,2.155,0,2.155" transform="matrix(-0.616, -0.788, 0.788, -0.616, 84.355, 106.052)" fill="none" stroke="#adadad" stroke-width="3"/></g><g transform="translate(0 59.957)"><path d="M71.5,0s34.169,33.92,61.634,43.093,61.142,0,61.142,0,19.065,12.416,30.109,32.7c4.9,9.006,5.412,15.978,11.032,29,6.83,15.826,18.313,37.012,18.313,37.012s-45.328-41.5-65.309-43.654S158.524,115.6,158.524,115.6,142,92.6,121.384,90.126s-45.311,15.587-45.311,15.587S90.6,81.128,71.789,75.223,0,70.4,0,70.4s47.748-8.381,68.639-27.3S71.5,0,71.5,0Z" transform="translate(19.735 0) rotate(8)" fill="#656565" stroke="#adadad" stroke-width="3"/><path d="M4802.744,1847.137c-8.754,1.935-11.476,4.314-26.221,6.368s-32.466-2.528-32.466-2.528" transform="translate(-4596.048 -1777.102)" fill="none" stroke="#adadad" stroke-width="3"/><path d="M39.972,0c-8.706,1.925-8.739,4.26-18.577,6.091S0,4.472,0,4.472" transform="matrix(0.899, -0.438, 0.438, 0.899, 169.814, 87.833)" fill="none" stroke="#adadad" stroke-width="3"/><path d="M39.972,0c-8.706,1.925-8.739,4.26-18.577,6.091S0,4.472,0,4.472" transform="matrix(0.616, -0.788, 0.788, 0.616, 181.416, 101.973)" fill="none" stroke="#adadad" stroke-width="3"/></g></g></svg>